  0
SECTION
  2
BLOCKS
  0
ENDSEC
  0
SECTION
  2
ENTITIES
  0
LINE
  8
0
 10
-44.45
 11
-44.45
 20
-13.5
 21
-10.563
  0
LINE
  8
0
 10
-44.45
 11
-44.101
 20
-10.563
 21
-10.462
  0
LINE
  8
0
 10
-44.101
 11
-43.451
 20
-10.462
 21
-10.228
  0
LINE
  8
0
 10
-43.451
 11
-42.816
 20
-10.228
 21
-9.953
  0
LINE
  8
0
 10
-42.816
 11
-42.201
 20
-9.953
 21
-9.639
  0
LINE
  8
0
 10
-42.201
 11
-41.606
 20
-9.639
 21
-9.288
  0
LINE
  8
0
 10
-41.606
 11
-41.034
 20
-9.288
 21
-8.899
  0
LINE
  8
0
 10
-41.034
 11
-40.488
 20
-8.899
 21
-8.476
  0
LINE
  8
0
 10
-40.488
 11
-39.97
 20
-8.476
 21
-8.019
  0
LINE
  8
0
 10
-39.97
 11
-39.481
 20
-8.019
 21
-7.53
  0
LINE
  8
0
 10
-39.481
 11
-39.024
 20
-7.53
 21
-7.012
  0
LINE
  8
0
 10
-39.024
 11
-38.601
 20
-7.012
 21
-6.466
  0
LINE
  8
0
 10
-38.601
 11
-38.212
 20
-6.466
 21
-5.894
  0
LINE
  8
0
 10
-38.212
 11
-37.861
 20
-5.894
 21
-5.299
  0
LINE
  8
0
 10
-37.861
 11
-37.547
 20
-5.299
 21
-4.684
  0
LINE
  8
0
 10
-37.547
 11
-37.272
 20
-4.684
 21
-4.049
  0
LINE
  8
0
 10
-37.272
 11
-37.038
 20
-4.049
 21
-3.399
  0
LINE
  8
0
 10
-37.038
 11
-36.846
 20
-3.399
 21
-2.736
  0
LINE
  8
0
 10
-36.846
 11
-36.695
 20
-2.736
 21
-2.061
  0
LINE
  8
0
 10
-36.695
 11
-36.587
 20
-2.061
 21
-1.379
  0
LINE
  8
0
 10
-36.587
 11
-36.522
 20
-1.379
 21
-0.691
  0
LINE
  8
0
 10
-36.522
 11
-36.5
 20
-0.691
 21
0
  0
LINE
  8
0
 10
-36.5
 11
-36.522
 20
0
 21
0.691
  0
LINE
  8
0
 10
-36.522
 11
-36.587
 20
0.691
 21
1.379
  0
LINE
  8
0
 10
-36.587
 11
-36.695
 20
1.379
 21
2.061
  0
LINE
  8
0
 10
-36.695
 11
-36.846
 20
2.061
 21
2.736
  0
LINE
  8
0
 10
-36.846
 11
-37.038
 20
2.736
 21
3.399
  0
LINE
  8
0
 10
-37.038
 11
-37.272
 20
3.399
 21
4.049
  0
LINE
  8
0
 10
-37.272
 11
-37.547
 20
4.049
 21
4.684
  0
LINE
  8
0
 10
-37.547
 11
-37.861
 20
4.684
 21
5.299
  0
LINE
  8
0
 10
-37.861
 11
-38.212
 20
5.299
 21
5.894
  0
LINE
  8
0
 10
-38.212
 11
-38.601
 20
5.894
 21
6.466
  0
LINE
  8
0
 10
-38.601
 11
-39.024
 20
6.466
 21
7.012
  0
LINE
  8
0
 10
-39.024
 11
-39.481
 20
7.012
 21
7.53
  0
LINE
  8
0
 10
-39.481
 11
-39.97
 20
7.53
 21
8.019
  0
LINE
  8
0
 10
-39.97
 11
-40.488
 20
8.019
 21
8.476
  0
LINE
  8
0
 10
-40.488
 11
-41.034
 20
8.476
 21
8.899
  0
LINE
  8
0
 10
-41.034
 11
-41.606
 20
8.899
 21
9.288
  0
LINE
  8
0
 10
-41.606
 11
-42.201
 20
9.288
 21
9.639
  0
LINE
  8
0
 10
-42.201
 11
-42.816
 20
9.639
 21
9.953
  0
LINE
  8
0
 10
-42.816
 11
-43.451
 20
9.953
 21
10.228
  0
LINE
  8
0
 10
-43.451
 11
-44.101
 20
10.228
 21
10.462
  0
LINE
  8
0
 10
-44.101
 11
-44.45
 20
10.462
 21
10.563
  0
LINE
  8
0
 10
-44.45
 11
-44.45
 20
10.563
 21
13.5
  0
LINE
  8
0
 10
-44.45
 11
-44.205
 20
13.5
 21
15.045
  0
LINE
  8
0
 10
-44.205
 11
-43.495
 20
15.045
 21
16.439
  0
LINE
  8
0
 10
-43.495
 11
-42.389
 20
16.439
 21
17.545
  0
LINE
  8
0
 10
-42.389
 11
-40.995
 20
17.545
 21
18.255
  0
LINE
  8
0
 10
-40.995
 11
-39.45
 20
18.255
 21
18.5
  0
LINE
  8
0
 10
-39.45
 11
39.45
 20
18.5
 21
18.5
  0
LINE
  8
0
 10
39.45
 11
40.995
 20
18.5
 21
18.255
  0
LINE
  8
0
 10
40.995
 11
42.389
 20
18.255
 21
17.545
  0
LINE
  8
0
 10
42.389
 11
43.495
 20
17.545
 21
16.439
  0
LINE
  8
0
 10
43.495
 11
44.205
 20
16.439
 21
15.045
  0
LINE
  8
0
 10
44.205
 11
44.45
 20
15.045
 21
13.5
  0
LINE
  8
0
 10
44.45
 11
44.45
 20
13.5
 21
-13.5
  0
LINE
  8
0
 10
44.45
 11
44.205
 20
-13.5
 21
-15.045
  0
LINE
  8
0
 10
44.205
 11
43.495
 20
-15.045
 21
-16.439
  0
LINE
  8
0
 10
43.495
 11
42.389
 20
-16.439
 21
-17.545
  0
LINE
  8
0
 10
42.389
 11
40.995
 20
-17.545
 21
-18.255
  0
LINE
  8
0
 10
40.995
 11
39.45
 20
-18.255
 21
-18.5
  0
LINE
  8
0
 10
39.45
 11
-39.45
 20
-18.5
 21
-18.5
  0
LINE
  8
0
 10
-39.45
 11
-40.995
 20
-18.5
 21
-18.255
  0
LINE
  8
0
 10
-40.995
 11
-42.389
 20
-18.255
 21
-17.545
  0
LINE
  8
0
 10
-42.389
 11
-43.495
 20
-17.545
 21
-16.439
  0
LINE
  8
0
 10
-43.495
 11
-44.205
 20
-16.439
 21
-15.045
  0
LINE
  8
0
 10
-44.205
 11
-44.45
 20
-15.045
 21
-13.5
  0
LINE
  8
0
 10
-36.6
 11
-36.522
 20
-15.5
 21
-15.006
  0
LINE
  8
0
 10
-36.522
 11
-36.294
 20
-15.006
 21
-14.56
  0
LINE
  8
0
 10
-36.294
 11
-35.94
 20
-14.56
 21
-14.206
  0
LINE
  8
0
 10
-35.94
 11
-35.494
 20
-14.206
 21
-13.978
  0
LINE
  8
0
 10
-35.494
 11
-35
 20
-13.978
 21
-13.9
  0
LINE
  8
0
 10
-35
 11
-32
 20
-13.9
 21
-13.9
  0
LINE
  8
0
 10
-32
 11
-31.506
 20
-13.9
 21
-13.978
  0
LINE
  8
0
 10
-31.506
 11
-31.06
 20
-13.978
 21
-14.206
  0
LINE
  8
0
 10
-31.06
 11
-30.706
 20
-14.206
 21
-14.56
  0
LINE
  8
0
 10
-30.706
 11
-30.478
 20
-14.56
 21
-15.006
  0
LINE
  8
0
 10
-30.478
 11
-30.4
 20
-15.006
 21
-15.5
  0
LINE
  8
0
 10
-30.4
 11
-30.478
 20
-15.5
 21
-15.994
  0
LINE
  8
0
 10
-30.478
 11
-30.706
 20
-15.994
 21
-16.44
  0
LINE
  8
0
 10
-30.706
 11
-31.06
 20
-16.44
 21
-16.794
  0
LINE
  8
0
 10
-31.06
 11
-31.506
 20
-16.794
 21
-17.022
  0
LINE
  8
0
 10
-31.506
 11
-32
 20
-17.022
 21
-17.1
  0
LINE
  8
0
 10
-32
 11
-35
 20
-17.1
 21
-17.1
  0
LINE
  8
0
 10
-35
 11
-35.494
 20
-17.1
 21
-17.022
  0
LINE
  8
0
 10
-35.494
 11
-35.94
 20
-17.022
 21
-16.794
  0
LINE
  8
0
 10
-35.94
 11
-36.294
 20
-16.794
 21
-16.44
  0
LINE
  8
0
 10
-36.294
 11
-36.522
 20
-16.44
 21
-15.994
  0
LINE
  8
0
 10
-36.522
 11
-36.6
 20
-15.994
 21
-15.5
  0
LINE
  8
0
 10
-36.6
 11
-36.522
 20
15.5
 21
15.994
  0
LINE
  8
0
 10
-36.522
 11
-36.294
 20
15.994
 21
16.44
  0
LINE
  8
0
 10
-36.294
 11
-35.94
 20
16.44
 21
16.794
  0
LINE
  8
0
 10
-35.94
 11
-35.494
 20
16.794
 21
17.022
  0
LINE
  8
0
 10
-35.494
 11
-35
 20
17.022
 21
17.1
  0
LINE
  8
0
 10
-35
 11
-32
 20
17.1
 21
17.1
  0
LINE
  8
0
 10
-32
 11
-31.506
 20
17.1
 21
17.022
  0
LINE
  8
0
 10
-31.506
 11
-31.06
 20
17.022
 21
16.794
  0
LINE
  8
0
 10
-31.06
 11
-30.706
 20
16.794
 21
16.44
  0
LINE
  8
0
 10
-30.706
 11
-30.478
 20
16.44
 21
15.994
  0
LINE
  8
0
 10
-30.478
 11
-30.4
 20
15.994
 21
15.5
  0
LINE
  8
0
 10
-30.4
 11
-30.478
 20
15.5
 21
15.006
  0
LINE
  8
0
 10
-30.478
 11
-30.706
 20
15.006
 21
14.56
  0
LINE
  8
0
 10
-30.706
 11
-31.06
 20
14.56
 21
14.206
  0
LINE
  8
0
 10
-31.06
 11
-31.506
 20
14.206
 21
13.978
  0
LINE
  8
0
 10
-31.506
 11
-32
 20
13.978
 21
13.9
  0
LINE
  8
0
 10
-32
 11
-35
 20
13.9
 21
13.9
  0
LINE
  8
0
 10
-35
 11
-35.494
 20
13.9
 21
13.978
  0
LINE
  8
0
 10
-35.494
 11
-35.94
 20
13.978
 21
14.206
  0
LINE
  8
0
 10
-35.94
 11
-36.294
 20
14.206
 21
14.56
  0
LINE
  8
0
 10
-36.294
 11
-36.522
 20
14.56
 21
15.006
  0
LINE
  8
0
 10
-36.522
 11
-36.6
 20
15.006
 21
15.5
  0
LINE
  8
0
 10
-12.8
 11
-12.8
 20
-7.05
 21
1.05
  0
LINE
  8
0
 10
-12.8
 11
-12.634
 20
1.05
 21
1.05
  0
LINE
  8
0
 10
-12.634
 11
-12.602
 20
1.05
 21
1.252
  0
LINE
  8
0
 10
-12.602
 11
-12.027
 20
1.252
 21
2.381
  0
LINE
  8
0
 10
-12.027
 11
-11.131
 20
2.381
 21
3.277
  0
LINE
  8
0
 10
-11.131
 11
-10.002
 20
3.277
 21
3.852
  0
LINE
  8
0
 10
-10.002
 11
-8.75
 20
3.852
 21
4.05
  0
LINE
  8
0
 10
-8.75
 11
-7.498
 20
4.05
 21
3.852
  0
LINE
  8
0
 10
-7.498
 11
-6.369
 20
3.852
 21
3.277
  0
LINE
  8
0
 10
-6.369
 11
-5.473
 20
3.277
 21
2.381
  0
LINE
  8
0
 10
-5.473
 11
-4.898
 20
2.381
 21
1.252
  0
LINE
  8
0
 10
-4.898
 11
-4.866
 20
1.252
 21
1.05
  0
LINE
  8
0
 10
-4.866
 11
-4.7
 20
1.05
 21
1.05
  0
LINE
  8
0
 10
-4.7
 11
-4.7
 20
1.05
 21
-7.05
  0
LINE
  8
0
 10
-4.7
 11
-4.866
 20
-7.05
 21
-7.05
  0
LINE
  8
0
 10
-4.866
 11
-4.898
 20
-7.05
 21
-7.252
  0
LINE
  8
0
 10
-4.898
 11
-5.473
 20
-7.252
 21
-8.381
  0
LINE
  8
0
 10
-5.473
 11
-6.369
 20
-8.381
 21
-9.277
  0
LINE
  8
0
 10
-6.369
 11
-7.498
 20
-9.277
 21
-9.852
  0
LINE
  8
0
 10
-7.498
 11
-8.75
 20
-9.852
 21
-10.05
  0
LINE
  8
0
 10
-8.75
 11
-10.002
 20
-10.05
 21
-9.852
  0
LINE
  8
0
 10
-10.002
 11
-11.131
 20
-9.852
 21
-9.277
  0
LINE
  8
0
 10
-11.131
 11
-12.027
 20
-9.277
 21
-8.381
  0
LINE
  8
0
 10
-12.027
 11
-12.602
 20
-8.381
 21
-7.252
  0
LINE
  8
0
 10
-12.602
 11
-12.634
 20
-7.252
 21
-7.05
  0
LINE
  8
0
 10
-12.634
 11
-12.8
 20
-7.05
 21
-7.05
  0
LINE
  8
0
 10
3.45
 11
3.575
 20
-10
 21
-9.212
  0
LINE
  8
0
 10
3.575
 11
3.937
 20
-9.212
 21
-8.501
  0
LINE
  8
0
 10
3.937
 11
4.501
 20
-8.501
 21
-7.937
  0
LINE
  8
0
 10
4.501
 11
5.212
 20
-7.937
 21
-7.575
  0
LINE
  8
0
 10
5.212
 11
6
 20
-7.575
 21
-7.45
  0
LINE
  8
0
 10
6
 11
6.316
 20
-7.45
 21
-7.5
  0
LINE
  8
0
 10
6.316
 11
13.684
 20
-7.5
 21
-7.5
  0
LINE
  8
0
 10
13.684
 11
14
 20
-7.5
 21
-7.45
  0
LINE
  8
0
 10
14
 11
14.788
 20
-7.45
 21
-7.575
  0
LINE
  8
0
 10
14.788
 11
15.499
 20
-7.575
 21
-7.937
  0
LINE
  8
0
 10
15.499
 11
16.063
 20
-7.937
 21
-8.501
  0
LINE
  8
0
 10
16.063
 11
16.425
 20
-8.501
 21
-9.212
  0
LINE
  8
0
 10
16.425
 11
16.55
 20
-9.212
 21
-10
  0
LINE
  8
0
 10
16.55
 11
16.425
 20
-10
 21
-10.788
  0
LINE
  8
0
 10
16.425
 11
16.063
 20
-10.788
 21
-11.499
  0
LINE
  8
0
 10
16.063
 11
15.499
 20
-11.499
 21
-12.063
  0
LINE
  8
0
 10
15.499
 11
14.788
 20
-12.063
 21
-12.425
  0
LINE
  8
0
 10
14.788
 11
14
 20
-12.425
 21
-12.55
  0
LINE
  8
0
 10
14
 11
13.684
 20
-12.55
 21
-12.5
  0
LINE
  8
0
 10
13.684
 11
6.316
 20
-12.5
 21
-12.5
  0
LINE
  8
0
 10
6.316
 11
6
 20
-12.5
 21
-12.55
  0
LINE
  8
0
 10
6
 11
5.212
 20
-12.55
 21
-12.425
  0
LINE
  8
0
 10
5.212
 11
4.501
 20
-12.425
 21
-12.063
  0
LINE
  8
0
 10
4.501
 11
3.937
 20
-12.063
 21
-11.499
  0
LINE
  8
0
 10
3.937
 11
3.575
 20
-11.499
 21
-10.788
  0
LINE
  8
0
 10
3.575
 11
3.45
 20
-10.788
 21
-10
  0
LINE
  8
0
 10
3.45
 11
3.575
 20
10
 21
10.788
  0
LINE
  8
0
 10
3.575
 11
3.937
 20
10.788
 21
11.499
  0
LINE
  8
0
 10
3.937
 11
4.501
 20
11.499
 21
12.063
  0
LINE
  8
0
 10
4.501
 11
5.212
 20
12.063
 21
12.425
  0
LINE
  8
0
 10
5.212
 11
6
 20
12.425
 21
12.55
  0
LINE
  8
0
 10
6
 11
6.316
 20
12.55
 21
12.5
  0
LINE
  8
0
 10
6.316
 11
13.684
 20
12.5
 21
12.5
  0
LINE
  8
0
 10
13.684
 11
14
 20
12.5
 21
12.55
  0
LINE
  8
0
 10
14
 11
14.788
 20
12.55
 21
12.425
  0
LINE
  8
0
 10
14.788
 11
15.499
 20
12.425
 21
12.063
  0
LINE
  8
0
 10
15.499
 11
16.063
 20
12.063
 21
11.499
  0
LINE
  8
0
 10
16.063
 11
16.425
 20
11.499
 21
10.788
  0
LINE
  8
0
 10
16.425
 11
16.55
 20
10.788
 21
10
  0
LINE
  8
0
 10
16.55
 11
16.425
 20
10
 21
9.212
  0
LINE
  8
0
 10
16.425
 11
16.063
 20
9.212
 21
8.501
  0
LINE
  8
0
 10
16.063
 11
15.499
 20
8.501
 21
7.937
  0
LINE
  8
0
 10
15.499
 11
14.788
 20
7.937
 21
7.575
  0
LINE
  8
0
 10
14.788
 11
14
 20
7.575
 21
7.45
  0
LINE
  8
0
 10
14
 11
13.684
 20
7.45
 21
7.5
  0
LINE
  8
0
 10
13.684
 11
6.316
 20
7.5
 21
7.5
  0
LINE
  8
0
 10
6.316
 11
6
 20
7.5
 21
7.45
  0
LINE
  8
0
 10
6
 11
5.212
 20
7.45
 21
7.575
  0
LINE
  8
0
 10
5.212
 11
4.501
 20
7.575
 21
7.937
  0
LINE
  8
0
 10
4.501
 11
3.937
 20
7.937
 21
8.501
  0
LINE
  8
0
 10
3.937
 11
3.575
 20
8.501
 21
9.212
  0
LINE
  8
0
 10
3.575
 11
3.45
 20
9.212
 21
10
  0
LINE
  8
0
 10
20.15
 11
20.172
 20
0
 21
0.684
  0
LINE
  8
0
 10
20.172
 11
20.236
 20
0.684
 21
1.366
  0
LINE
  8
0
 10
20.236
 11
20.343
 20
1.366
 21
2.042
  0
LINE
  8
0
 10
20.343
 11
20.492
 20
2.042
 21
2.711
  0
LINE
  8
0
 10
20.492
 11
20.683
 20
2.711
 21
3.368
  0
LINE
  8
0
 10
20.683
 11
20.915
 20
3.368
 21
4.013
  0
LINE
  8
0
 10
20.915
 11
21.187
 20
4.013
 21
4.641
  0
LINE
  8
0
 10
21.187
 11
21.498
 20
4.641
 21
5.251
  0
LINE
  8
0
 10
21.498
 11
21.847
 20
5.251
 21
5.841
  0
LINE
  8
0
 10
21.847
 11
22.232
 20
5.841
 21
6.407
  0
LINE
  8
0
 10
22.232
 11
22.651
 20
6.407
 21
6.948
  0
LINE
  8
0
 10
22.651
 11
23.104
 20
6.948
 21
7.462
  0
LINE
  8
0
 10
23.104
 11
23.588
 20
7.462
 21
7.946
  0
LINE
  8
0
 10
23.588
 11
24.102
 20
7.946
 21
8.399
  0
LINE
  8
0
 10
24.102
 11
24.643
 20
8.399
 21
8.818
  0
LINE
  8
0
 10
24.643
 11
25.209
 20
8.818
 21
9.203
  0
LINE
  8
0
 10
25.209
 11
25.799
 20
9.203
 21
9.552
  0
LINE
  8
0
 10
25.799
 11
26.409
 20
9.552
 21
9.863
  0
LINE
  8
0
 10
26.409
 11
27.037
 20
9.863
 21
10.135
  0
LINE
  8
0
 10
27.037
 11
27.682
 20
10.135
 21
10.367
  0
LINE
  8
0
 10
27.682
 11
28.339
 20
10.367
 21
10.558
  0
LINE
  8
0
 10
28.339
 11
29.008
 20
10.558
 21
10.707
  0
LINE
  8
0
 10
29.008
 11
29.684
 20
10.707
 21
10.814
  0
LINE
  8
0
 10
29.684
 11
30.366
 20
10.814
 21
10.878
  0
LINE
  8
0
 10
30.366
 11
31.05
 20
10.878
 21
10.9
  0
LINE
  8
0
 10
31.05
 11
31.734
 20
10.9
 21
10.878
  0
LINE
  8
0
 10
31.734
 11
32.416
 20
10.878
 21
10.814
  0
LINE
  8
0
 10
32.416
 11
33.092
 20
10.814
 21
10.707
  0
LINE
  8
0
 10
33.092
 11
33.761
 20
10.707
 21
10.558
  0
LINE
  8
0
 10
33.761
 11
34.418
 20
10.558
 21
10.367
  0
LINE
  8
0
 10
34.418
 11
35.063
 20
10.367
 21
10.135
  0
LINE
  8
0
 10
35.063
 11
35.691
 20
10.135
 21
9.863
  0
LINE
  8
0
 10
35.691
 11
36.301
 20
9.863
 21
9.552
  0
LINE
  8
0
 10
36.301
 11
36.891
 20
9.552
 21
9.203
  0
LINE
  8
0
 10
36.891
 11
37.457
 20
9.203
 21
8.818
  0
LINE
  8
0
 10
37.457
 11
37.998
 20
8.818
 21
8.399
  0
LINE
  8
0
 10
37.998
 11
38.512
 20
8.399
 21
7.946
  0
LINE
  8
0
 10
38.512
 11
38.996
 20
7.946
 21
7.462
  0
LINE
  8
0
 10
38.996
 11
39.449
 20
7.462
 21
6.948
  0
LINE
  8
0
 10
39.449
 11
39.868
 20
6.948
 21
6.407
  0
LINE
  8
0
 10
39.868
 11
40.253
 20
6.407
 21
5.841
  0
LINE
  8
0
 10
40.253
 11
40.602
 20
5.841
 21
5.251
  0
LINE
  8
0
 10
40.602
 11
40.913
 20
5.251
 21
4.641
  0
LINE
  8
0
 10
40.913
 11
41.185
 20
4.641
 21
4.013
  0
LINE
  8
0
 10
41.185
 11
41.417
 20
4.013
 21
3.368
  0
LINE
  8
0
 10
41.417
 11
41.608
 20
3.368
 21
2.711
  0
LINE
  8
0
 10
41.608
 11
41.757
 20
2.711
 21
2.042
  0
LINE
  8
0
 10
41.757
 11
41.864
 20
2.042
 21
1.366
  0
LINE
  8
0
 10
41.864
 11
41.928
 20
1.366
 21
0.684
  0
LINE
  8
0
 10
41.928
 11
41.95
 20
0.684
 21
0
  0
LINE
  8
0
 10
41.95
 11
41.928
 20
0
 21
-0.684
  0
LINE
  8
0
 10
41.928
 11
41.864
 20
-0.684
 21
-1.366
  0
LINE
  8
0
 10
41.864
 11
41.757
 20
-1.366
 21
-2.042
  0
LINE
  8
0
 10
41.757
 11
41.608
 20
-2.042
 21
-2.711
  0
LINE
  8
0
 10
41.608
 11
41.417
 20
-2.711
 21
-3.368
  0
LINE
  8
0
 10
41.417
 11
41.185
 20
-3.368
 21
-4.013
  0
LINE
  8
0
 10
41.185
 11
40.913
 20
-4.013
 21
-4.641
  0
LINE
  8
0
 10
40.913
 11
40.602
 20
-4.641
 21
-5.251
  0
LINE
  8
0
 10
40.602
 11
40.253
 20
-5.251
 21
-5.841
  0
LINE
  8
0
 10
40.253
 11
39.868
 20
-5.841
 21
-6.407
  0
LINE
  8
0
 10
39.868
 11
39.449
 20
-6.407
 21
-6.948
  0
LINE
  8
0
 10
39.449
 11
38.996
 20
-6.948
 21
-7.462
  0
LINE
  8
0
 10
38.996
 11
38.512
 20
-7.462
 21
-7.946
  0
LINE
  8
0
 10
38.512
 11
37.998
 20
-7.946
 21
-8.399
  0
LINE
  8
0
 10
37.998
 11
37.457
 20
-8.399
 21
-8.818
  0
LINE
  8
0
 10
37.457
 11
36.891
 20
-8.818
 21
-9.203
  0
LINE
  8
0
 10
36.891
 11
36.301
 20
-9.203
 21
-9.552
  0
LINE
  8
0
 10
36.301
 11
35.691
 20
-9.552
 21
-9.863
  0
LINE
  8
0
 10
35.691
 11
35.063
 20
-9.863
 21
-10.135
  0
LINE
  8
0
 10
35.063
 11
34.418
 20
-10.135
 21
-10.367
  0
LINE
  8
0
 10
34.418
 11
33.761
 20
-10.367
 21
-10.558
  0
LINE
  8
0
 10
33.761
 11
33.092
 20
-10.558
 21
-10.707
  0
LINE
  8
0
 10
33.092
 11
32.416
 20
-10.707
 21
-10.814
  0
LINE
  8
0
 10
32.416
 11
31.734
 20
-10.814
 21
-10.878
  0
LINE
  8
0
 10
31.734
 11
31.05
 20
-10.878
 21
-10.9
  0
LINE
  8
0
 10
31.05
 11
30.366
 20
-10.9
 21
-10.878
  0
LINE
  8
0
 10
30.366
 11
29.684
 20
-10.878
 21
-10.814
  0
LINE
  8
0
 10
29.684
 11
29.008
 20
-10.814
 21
-10.707
  0
LINE
  8
0
 10
29.008
 11
28.339
 20
-10.707
 21
-10.558
  0
LINE
  8
0
 10
28.339
 11
27.682
 20
-10.558
 21
-10.367
  0
LINE
  8
0
 10
27.682
 11
27.037
 20
-10.367
 21
-10.135
  0
LINE
  8
0
 10
27.037
 11
26.409
 20
-10.135
 21
-9.863
  0
LINE
  8
0
 10
26.409
 11
25.799
 20
-9.863
 21
-9.552
  0
LINE
  8
0
 10
25.799
 11
25.209
 20
-9.552
 21
-9.203
  0
LINE
  8
0
 10
25.209
 11
24.643
 20
-9.203
 21
-8.818
  0
LINE
  8
0
 10
24.643
 11
24.102
 20
-8.818
 21
-8.399
  0
LINE
  8
0
 10
24.102
 11
23.588
 20
-8.399
 21
-7.946
  0
LINE
  8
0
 10
23.588
 11
23.104
 20
-7.946
 21
-7.462
  0
LINE
  8
0
 10
23.104
 11
22.651
 20
-7.462
 21
-6.948
  0
LINE
  8
0
 10
22.651
 11
22.232
 20
-6.948
 21
-6.407
  0
LINE
  8
0
 10
22.232
 11
21.847
 20
-6.407
 21
-5.841
  0
LINE
  8
0
 10
21.847
 11
21.498
 20
-5.841
 21
-5.251
  0
LINE
  8
0
 10
21.498
 11
21.187
 20
-5.251
 21
-4.641
  0
LINE
  8
0
 10
21.187
 11
20.915
 20
-4.641
 21
-4.013
  0
LINE
  8
0
 10
20.915
 11
20.683
 20
-4.013
 21
-3.368
  0
LINE
  8
0
 10
20.683
 11
20.492
 20
-3.368
 21
-2.711
  0
LINE
  8
0
 10
20.492
 11
20.343
 20
-2.711
 21
-2.042
  0
LINE
  8
0
 10
20.343
 11
20.236
 20
-2.042
 21
-1.366
  0
LINE
  8
0
 10
20.236
 11
20.172
 20
-1.366
 21
-0.684
  0
LINE
  8
0
 10
20.172
 11
20.15
 20
-0.684
 21
0
  0
ENDSEC
  0
SECTION
  2
OBJECTS
  0
DICTIONARY
  0
ENDSEC
  0
EOF
